<svg xmlns="http://www.w3.org/2000/svg" version="1.1" xmlns:xlink="http://www.w3.org/1999/xlink" xmlns:svgjs="http://svgjs.dev/svgjs" width="1500" height="1500" viewBox="0 0 1500 1500"><g transform="matrix(1,0,0,1,0,0)"><svg viewBox="0 0 280 280" data-background-color="#187614" preserveAspectRatio="xMidYMid meet" height="1500" width="1500" xmlns="http://www.w3.org/2000/svg" xmlns:xlink="http://www.w3.org/1999/xlink"><g id="tight-bounds" transform="matrix(1,0,0,1,0,0)"><svg viewBox="0 0 280 280" height="280" width="280"><g><svg viewBox="0 0 280 280" height="280" width="280"><g><svg viewBox="0 0 280 280" height="280" width="280"><g id="textblocktransform"><svg viewBox="0 0 280 280" height="280" width="280" id="textblock"><g><svg viewBox="0 0 280 280" height="280" width="280"><g transform="matrix(1,0,0,1,96.28973193517635,90.50252531694167)"><svg viewBox="0 0 87.4205361296473 98.99494936611666" height="98.99494936611666" width="87.4205361296473"><g id="icon-0"><svg xmlns="http://www.w3.org/2000/svg" xmlns:xlink="http://www.w3.org/1999/xlink" version="1.1" x="0" y="0" viewBox="19.5 15.461823276781704 61 69.0763541232183" style="enable-background:new 0 0 100 100;" xml:space="preserve" height="98.99494936611666" width="87.4205361296473" class="icon-xg-0" data-fill-palette-color="accent" id="xg-0"><path d="M72.218 63.11l-12.21-3.771c0 0 0 0 0-0.001l-1.648-0.508V56.456l1.806-1.548c2.532-2.177 3.984-5.34 3.984-8.68v-0.98h0.69c2.448 0 4.44-1.992 4.44-4.44v-2.09c0-0.805-0.317-1.572-0.9-2.167-0.456-0.446-1.023-0.732-1.632-0.84 0.129-1.749 0.44-7.69-1.002-10.998-3.816-8.759-14.321-10.336-20.558-8.658-4.015 1.08-6.141 4.116-6.743 5.11-1.448-0.168-2.643 0.218-3.565 1.15-3.036 3.062-2.015 11.227-1.679 13.4-0.594 0.114-1.146 0.401-1.598 0.844-0.575 0.588-0.893 1.355-0.893 2.159v2.09c0 2.448 1.992 4.44 4.44 4.44h0.69v0.98c0 3.339 1.452 6.503 3.986 8.681l1.804 1.542v2.379l-1.648 0.508c0 0 0 0 0 0.001l-12.212 3.772C22.823 64.676 19.5 69.208 19.5 74.388v9.65c0 0.276 0.224 0.5 0.5 0.5h60c0.276 0 0.5-0.224 0.5-0.5v-9.65C80.5 69.207 77.173 64.675 72.218 63.11zM40.63 60.185l1-0.309v1.132c0 1.689 0.831 3.278 2.224 4.25 1.808 1.263 3.93 1.93 6.136 1.93 2.214 0 4.339-0.667 6.146-1.93 1.393-0.972 2.225-2.561 2.224-4.25v-1.132l1 0.309v0.823c0 2.015-0.991 3.911-2.651 5.07-1.976 1.38-4.299 2.11-6.719 2.11-2.413 0-4.733-0.729-6.71-2.11-1.659-1.16-2.65-3.055-2.65-5.07V60.185zM61.763 38.958c-0.249-0.486-0.749-0.822-1.33-0.822h-7.609c-0.827 0-1.5 0.673-1.5 1.5v0.317h-2.648v-0.317c0-0.827-0.673-1.5-1.5-1.5h-7.609c-0.582 0-1.082 0.337-1.331 0.823l-1.343-0.554c0.344-2.2 1.287-6.894 2.533-8.804l2.308 2.992c0.111 0.146 0.296 0.218 0.478 0.188s0.332-0.158 0.392-0.331L44.125 27.988c2.271-0.317 17.029-1.987 19.025 7.601v2.795L61.763 38.958zM52.324 39.636c0-0.276 0.225-0.5 0.5-0.5h7.609c0.275 0 0.5 0.224 0.5 0.5v1.569c0 0.827-0.673 1.5-1.5 1.5h-5.609c-0.827 0-1.5-0.673-1.5-1.5V39.636zM47.676 41.205c0 0.827-0.673 1.5-1.5 1.5h-5.609c-0.827 0-1.5-0.673-1.5-1.5v-1.569c0-0.276 0.225-0.5 0.5-0.5h7.609c0.275 0 0.5 0.224 0.5 0.5V41.205zM68.28 38.718v2.09c0 1.897-1.543 3.44-3.44 3.44h-0.69v-1.96c0.127 0.038 0.258 0.065 0.397 0.065 0.769 0 1.394-0.625 1.393-1.394 0-0.276-0.224-0.5-0.5-0.5s-0.5 0.224-0.5 0.5c0 0.217-0.177 0.394-0.393 0.394s-0.393-0.177-0.393-0.394c0-0.007-0.004-0.013-0.004-0.019v-0.65c0-0.007 0.004-0.013 0.004-0.02 0-0.625 0.509-1.134 1.134-1.134s1.134 0.509 1.134 1.134c0 0.276 0.224 0.5 0.5 0.5s0.5-0.224 0.5-0.5c0-1.177-0.957-2.134-2.134-2.134-0.408 0-0.787 0.121-1.111 0.321 0.13-1.011 0.987-1.798 2.033-1.799 0.548 0 1.07 0.216 1.463 0.6C68.064 37.658 68.28 38.177 68.28 38.718zM35.59 23.019c0.763-0.77 1.756-1.038 3.035-0.818 0.21 0.035 0.428-0.069 0.528-0.262 0.02-0.038 2.006-3.764 6.295-4.918C51.34 15.434 61.25 16.899 64.83 25.113c1.347 3.092 1.032 8.968 0.916 10.58-0.031 0.005-0.059 0.015-0.09 0.021-0.056 0.01-0.109 0.025-0.164 0.038-0.128 0.031-0.252 0.07-0.374 0.116-0.052 0.02-0.105 0.039-0.155 0.062-0.151 0.068-0.296 0.145-0.433 0.235-0.011 0.007-0.023 0.012-0.034 0.02-0.122 0.083-0.237 0.174-0.346 0.273v-0.92c0-0.033-0.003-0.067-0.009-0.099v0c-1.438-7.09-9.005-8.608-14.523-8.742-0.552-0.013-1.083-0.013-1.586-0.003-0.503 0.01-0.977 0.03-1.413 0.055-1.748 0.101-2.907 0.289-2.953 0.296-0.181 0.031-0.33 0.158-0.39 0.332l-1.319 3.869-2.132-2.763c-0.088-0.115-0.222-0.186-0.366-0.194-0.143-0.004-0.286 0.046-0.388 0.15-0.114 0.117-0.224 0.257-0.332 0.408-0.031 0.042-0.061 0.087-0.091 0.132-0.085 0.127-0.169 0.263-0.251 0.408-0.022 0.039-0.044 0.075-0.066 0.115-0.099 0.184-0.196 0.38-0.289 0.586-0.023 0.052-0.046 0.106-0.07 0.158-0.074 0.169-0.146 0.344-0.217 0.524-0.023 0.06-0.047 0.119-0.069 0.18-0.088 0.233-0.173 0.471-0.256 0.716-0.003 0.008-0.005 0.016-0.007 0.023-0.082 0.246-0.16 0.498-0.236 0.752-0.014 0.048-0.028 0.095-0.042 0.143-0.436 1.486-0.768 3.044-0.987 4.211-0.035-0.044-0.08-0.079-0.117-0.121-0.061-0.068-0.123-0.133-0.19-0.195-0.074-0.068-0.152-0.131-0.232-0.191-0.073-0.056-0.147-0.11-0.226-0.159-0.086-0.054-0.175-0.1-0.266-0.145-0.083-0.041-0.166-0.082-0.253-0.115-0.096-0.037-0.194-0.064-0.294-0.091-0.091-0.025-0.181-0.05-0.276-0.067-0.032-0.006-0.062-0.018-0.094-0.022C33.923 33.838 32.859 25.774 35.59 23.019zM35.15 44.248c-1.897 0-3.44-1.543-3.44-3.44v-2.09c0-0.542 0.216-1.061 0.6-1.452 0.4-0.392 0.922-0.607 1.47-0.608 1.046 0 1.903 0.787 2.033 1.798-0.324-0.199-0.702-0.32-1.11-0.32-1.177 0-2.135 0.958-2.135 2.134 0 0.276 0.224 0.5 0.5 0.5s0.5-0.224 0.5-0.5c0-0.625 0.509-1.134 1.135-1.134 0.625 0 1.134 0.509 1.134 1.134 0 0.005 0.003 0.009 0.003 0.015v0.66c0 0.005-0.003 0.009-0.003 0.014 0 0.217-0.177 0.394-0.394 0.394s-0.393-0.177-0.392-0.394c0-0.276-0.224-0.5-0.5-0.5s-0.5 0.224-0.5 0.5c0 0.769 0.625 1.394 1.392 1.394 0.139 0 0.27-0.027 0.397-0.065v1.96H35.15zM36.84 46.228l-0.001-1.475c0-0.002 0.001-0.003 0.001-0.005v-5.283l1.227 0.506v1.234c0 1.378 1.121 2.5 2.5 2.5h5.609c1.379 0 2.5-1.122 2.5-2.5v-0.252h2.648v0.252c0 1.378 1.121 2.5 2.5 2.5h5.609c1.379 0 2.5-1.122 2.5-2.5v-1.235l1.217-0.504v5.282 1.48c0 3.047-1.325 5.935-3.634 7.92l-1.964 1.684c-0.005 0.004-0.013 0.004-0.018 0.008l-1.529 1.318c-0.79 0.677-1.67 1.207-2.616 1.575-2.185 0.854-4.626 0.849-6.78-0.001-0.937-0.36-1.816-0.889-2.614-1.574l-1.54-1.32c-0.002-0.002-0.005-0.001-0.007-0.003l-1.971-1.686C38.165 52.163 36.84 49.275 36.84 46.228zM43.345 57.918c0.885 0.758 1.862 1.346 2.901 1.746C47.432 60.131 48.729 60.378 50 60.378c1.278 0 2.54-0.24 3.751-0.713 1.051-0.408 2.028-0.996 2.905-1.748l0.704-0.604v1.885 1.81c0 1.363-0.672 2.645-1.797 3.431-1.638 1.145-3.565 1.75-5.573 1.749-0.5 0-0.996-0.038-1.483-0.112-1.462-0.224-2.852-0.779-4.081-1.638-1.124-0.785-1.796-2.068-1.796-3.43v-1.81-1.891L43.345 57.918zM79.5 83.538H68.191V78.483c0-0.276-0.224-0.5-0.5-0.5s-0.5 0.224-0.5 0.5v5.055H32.809V78.483c0-0.276-0.224-0.5-0.5-0.5s-0.5 0.224-0.5 0.5v5.055H20.5v-9.15c0-4.742 3.042-8.891 7.567-10.322l11.563-3.572v0.514c0 2.341 1.15 4.543 3.078 5.89 2.145 1.499 4.663 2.291 7.282 2.29 2.626 0 5.147-0.792 7.291-2.29 1.928-1.347 3.079-3.548 3.079-5.89V60.494l11.56 3.571C76.454 65.496 79.5 69.645 79.5 74.388V83.538z" fill="#f6efd1" data-fill-palette-color="accent"></path></svg></g></svg></g><g id="text-0"><path d="M3.964 86.107l30.221 0.86-1.26 3.444-2.925-0.351-5.169-0.179-2.339 6.004-1.874 5.509 3.852 3.274 2.613 1.709-1.231 3.366-23.317-19.731zM19.953 94.629l1.683-4.87-14.874-0.48-0.105 0.289 11.488 9.732z" fill="#f2fb58" data-fill-palette-color="primary"></path><path d="M95.215 6.008l6.272 14.394 2.762 6.068-3.274 1.46-17.624-10.757-0.206 0.092 3.853 8.767 3.107 6.744-2.778 1.238-2.556-6.059-6.467-14.306 3.227-1.439 17.623 10.757 0.29-0.13-6.952-15.368z" fill="#f2fb58" data-fill-palette-color="primary"></path><path d="M196.908 11.082c1.683 0.7 3.226 1.729 4.628 3.088v0l-1.809 2.831-0.543-0.082c-0.517-0.925-1.063-1.677-1.636-2.255-0.567-0.576-1.222-1.018-1.965-1.328v0c-1.185-0.493-2.25-0.573-3.194-0.241-0.947 0.338-1.585 0.905-1.916 1.7v0c-0.333 0.801-0.266 1.59 0.202 2.368 0.47 0.772 1.282 1.753 2.437 2.943v0c1.005 1.069 1.781 1.976 2.329 2.721 0.548 0.745 0.939 1.592 1.173 2.54 0.232 0.954 0.13 1.954-0.305 3.001v0c-0.446 1.072-1.148 1.952-2.107 2.64-0.963 0.679-2.12 1.071-3.471 1.174-1.349 0.097-2.796-0.175-4.341-0.817v0c-0.958-0.398-1.922-0.936-2.89-1.612-0.962-0.674-1.8-1.432-2.514-2.277v0l1.725-3.109 0.487 0.003c0.449 1.089 1.102 2.063 1.958 2.921 0.856 0.859 1.725 1.471 2.607 1.838v0c1.154 0.48 2.231 0.565 3.232 0.257 1.003-0.315 1.687-0.91 2.051-1.787v0c0.346-0.832 0.284-1.634-0.186-2.406-0.467-0.779-1.279-1.796-2.435-3.054v0c-0.968-1.016-1.738-1.902-2.311-2.657-0.576-0.75-0.973-1.599-1.192-2.548-0.219-0.949-0.111-1.947 0.324-2.993v0c0.459-1.103 1.167-1.97 2.123-2.6 0.96-0.636 2.09-0.991 3.393-1.063 1.308-0.07 2.691 0.198 4.146 0.804z" fill="#f2fb58" data-fill-palette-color="primary"></path><path d="M274.384 98.32l-14.196 5.71-6.417 2.734-1.261-3.058 6.252-2.434 2.797-1.197-4.66-11.195-2.544 1.004-6.417 2.735-1.261-3.059 6.253-2.434 14.341-6.057 1.28 3.106-8.878 3.561 2.256 5.606 2.366 5.604 8.808-3.731z" fill="#f2fb58" data-fill-palette-color="primary"></path><path d="M36.902 181.956l-23.64 18.846-1.26-3.443 2.461-1.621 4.064-3.199-2.088-6.095-2.124-5.417-5.055-0.016-3.099 0.382-1.232-3.367 30.545 0.025zM19.189 185.765l1.857 4.806 11.672-9.232-0.106-0.289-15.057-0.02z" fill="#f2fb58" data-fill-palette-color="primary"></path><path d="M104.359 253.596l-6.514 14.286-2.668 6.11-3.274-1.459-3.778-20.299-0.206-0.092-3.946 8.725-2.94 6.82-2.778-1.239 2.799-5.951 6.319-14.373 3.227 1.439 3.778 20.298 0.29 0.129 6.784-15.443z" fill="#f2fb58" data-fill-palette-color="primary"></path><path d="M188.185 248.052c1.683-0.7 3.501-1.067 5.453-1.103v0l0.731 3.279-0.44 0.327c-1.021-0.285-1.938-0.429-2.753-0.431-0.808-0.004-1.584 0.148-2.327 0.458v0c-1.185 0.493-1.993 1.191-2.424 2.094-0.428 0.91-0.476 1.762-0.146 2.557v0c0.333 0.801 0.94 1.31 1.822 1.527 0.879 0.211 2.147 0.327 3.805 0.348v0c1.466 0.041 2.657 0.13 3.572 0.267 0.915 0.137 1.791 0.457 2.628 0.96 0.84 0.509 1.477 1.286 1.913 2.332v0c0.446 1.072 0.574 2.19 0.385 3.356-0.197 1.162-0.736 2.258-1.616 3.289-0.883 1.025-2.096 1.859-3.64 2.501v0c-0.958 0.398-2.019 0.703-3.181 0.912-1.156 0.207-2.285 0.266-3.387 0.177v0l-0.988-3.416 0.345-0.343c1.089 0.449 2.239 0.673 3.452 0.673 1.212-0.001 2.26-0.185 3.142-0.553v0c1.154-0.48 1.974-1.183 2.461-2.11 0.484-0.933 0.544-1.838 0.18-2.715v0c-0.346-0.832-0.959-1.354-1.837-1.565-0.882-0.218-2.176-0.36-3.882-0.427v0c-1.403-0.03-2.574-0.109-3.514-0.235-0.937-0.12-1.82-0.438-2.648-0.952-0.827-0.514-1.459-1.294-1.893-2.34v0c-0.459-1.103-0.574-2.216-0.346-3.339 0.226-1.129 0.772-2.181 1.639-3.155 0.873-0.977 2.038-1.768 3.494-2.373z" fill="#f2fb58" data-fill-palette-color="primary"></path><path d="M253.794 173.304l14.095 5.956 6.479 2.583-1.261 3.058-6.151-2.68-2.828-1.122-4.584 11.226 2.512 1.08 6.479 2.583-1.261 3.058-6.151-2.68-14.442-5.811 1.28-3.105 8.808 3.731 2.351-5.567 2.272-5.643-8.879-3.561z" fill="#f2fb58" data-fill-palette-color="primary"></path><path d="M0 140.057c0-6.05 4.904-10.954 10.954-10.954 6.05 0 10.954 4.904 10.955 10.954 0 6.05-4.904 10.954-10.955 10.954-6.05 0-10.954-4.904-10.954-10.954z" fill="#f2fb58" data-fill-palette-color="primary"></path><path d="M258.091 140.057c0-6.05 4.904-10.954 10.955-10.954 6.05 0 10.954 4.904 10.954 10.954 0 6.05-4.904 10.954-10.954 10.954-6.05 0-10.954-4.904-10.955-10.954z" fill="#f2fb58" data-fill-palette-color="primary"></path></g><g id="text-1"></g></svg></g></svg></g></svg></g><g></g></svg></g><defs></defs></svg><rect width="280" height="280" fill="none" stroke="none" visibility="hidden"></rect></g></svg></g></svg>